<svg xmlns="http://www.w3.org/2000/svg" viewBox="0 0 512 512"><path fill="#4CAF50" d="M480 224c-20.5 0-40.3 7-56.1 18.7-18.41 13.9-63.54 53.74-63.54 53.74-13.8 11.5-33.8 11.7-47.8 0 0 0-77.9-65.7-99.3-83.3-21.3-17.7-19.6-52 .8-66.9 22.1-16.2 53.5-12.7 71.2 7.7 7.7 8.8 9.3 21 4.3 31.4l-7 14.6c-4.2 8.8-14.8 12.5-23.6 8.3-8.8-4.2-12.5-14.8-8.3-23.6l7-14.6c.9-1.9.6-4.2-.8-5.8-3.2-3.7-9.4-4.2-13.2-1.3-4.2 3.1-4.7 9-.8 12.8 5.6 5.4 34.6 30.6 34.6 30.6 2.6 2.3 6.4 2.3 9 0 0 0 94.7-83.5 116-100.8 21.3-17.4 52.8-15.1 70.9 5.8 18.1 20.9 14.8 53-7.5 70.1-15.6 11.9-39.2 39.8-59.9 66.5-6.6 8.5-4 20.9 5.6 26.2z"/></svg>
