<svg width="512" height="512" viewBox="0 0 512 512" fill="none" xmlns="http://www.w3.org/2000/svg">
  <rect width="512" height="512" rx="128" fill="#4CAF50"/>
  <path d="M180 340C160 340 142 332 128 318C114 304 106 286 106 266V246C106 226 114 208 128 194C142 180 160 172 180 172H200V212H180C170 212 162 215 156 221C150 227 146 235 146 246V266C146 277 150 285 156 291C162 297 170 300 180 300H200V340H180ZM332 340H280V300H332C342 300 350 297 356 291C362 285 366 277 366 266V260H312V220H406V266C406 286 398 304 384 318C370 332 352 340 332 340ZM332 172C352 172 370 180 384 194C398 208 406 226 406 246V252H366V246C366 235 362 227 356 221C350 215 342 212 332 212H280V172H332Z" fill="white"/>
</svg>
